<?xml version="1.0" encoding="UTF-8" standalone="no"?>
<!-- Image Copyright 2023 BrAPI Community -->
<svg xmlns:dc="http://purl.org/dc/elements/1.1/" xmlns:cc="http://creativecommons.org/ns#" xmlns:rdf="http://www.w3.org/1999/02/22-rdf-syntax-ns#" xmlns:svg="http://www.w3.org/2000/svg" xmlns="http://www.w3.org/2000/svg" version="1.1" id="svg2" viewBox="0 0 275.02118 60" height="15.875mm" width="72.766022mm">
  <defs id="defs4"/>
  <metadata id="metadata7">
    <rdf:RDF>
      <cc:Work rdf:about="">
        <dc:format>image/svg+xml</dc:format>
        <dc:type rdf:resource="http://purl.org/dc/dcmitype/StillImage"/>
        <dc:title/>
      </cc:Work>
    </rdf:RDF>
  </metadata>
  <g transform="translate(-32.413226,-970.03043)" id="layer1">
    <g id="g5877" transform="translate(-1013.6423,2220.4193)">
      <g id="g5672">
        <g transform="matrix(0.47999332,0,0,0.47999332,543.95587,-617.21019)" id="g4216">
          <g id="g4704" transform="translate(1197.0164,-1911.6151)">
            <path style="color:#000000;clip-rule:nonzero;display:inline;overflow:visible;visibility:visible;opacity:1;isolation:auto;mix-blend-mode:normal;color-interpolation:sRGB;color-interpolation-filters:linearRGB;solid-color:#000000;solid-opacity:1;fill:#006000;fill-opacity:1;fill-rule:evenodd;stroke:none;stroke-width:0.354;stroke-linecap:square;stroke-linejoin:miter;stroke-miterlimit:4;stroke-dasharray:none;stroke-dashoffset:0;stroke-opacity:1;marker:none;color-rendering:auto;image-rendering:auto;shape-rendering:auto;text-rendering:auto;enable-background:accumulate" d="m -120.96088,592.4745 a 30,30 0 0 0 -30,30 30,30 0 0 0 30,30 h 30 v -30 a 30,30 0 0 0 -30,-30 z" id="rect4149-6-1-1-0"/>
            <path style="color:#000000;clip-rule:nonzero;display:inline;overflow:visible;visibility:visible;opacity:1;isolation:auto;mix-blend-mode:normal;color-interpolation:sRGB;color-interpolation-filters:linearRGB;solid-color:#000000;solid-opacity:1;fill:#00a040;fill-opacity:1;fill-rule:evenodd;stroke:none;stroke-width:0.354;stroke-linecap:square;stroke-linejoin:miter;stroke-miterlimit:4;stroke-dasharray:none;stroke-dashoffset:0;stroke-opacity:1;marker:none;color-rendering:auto;image-rendering:auto;shape-rendering:auto;text-rendering:auto;enable-background:accumulate" d="m -55.96088,592.47537 a 30,30 0 0 1 30,30 30,30 0 0 1 -30,30 h -30 v -30 a 30,30 0 0 1 30,-30 z" id="rect4149-3-1-6-0-8"/>
            <path style="color:#000000;clip-rule:nonzero;display:inline;overflow:visible;visibility:visible;opacity:1;isolation:auto;mix-blend-mode:normal;color-interpolation:sRGB;color-interpolation-filters:linearRGB;solid-color:#000000;solid-opacity:1;fill:#905c08;fill-opacity:1;fill-rule:evenodd;stroke:none;stroke-width:0.354;stroke-linecap:square;stroke-linejoin:miter;stroke-miterlimit:4;stroke-dasharray:none;stroke-dashoffset:0;stroke-opacity:1;marker:none;color-rendering:auto;image-rendering:auto;shape-rendering:auto;text-rendering:auto;enable-background:accumulate" d="m -120.96088,717.47624 a 30,30 0 0 1 -30,-30 30,30 0 0 1 30,-30 h 30 v 30 a 30,30 0 0 1 -30,30 z" id="rect4149-4-1-7-8-1"/>
            <path style="color:#000000;clip-rule:nonzero;display:inline;overflow:visible;visibility:visible;opacity:1;isolation:auto;mix-blend-mode:normal;color-interpolation:sRGB;color-interpolation-filters:linearRGB;solid-color:#000000;solid-opacity:1;fill:#a0c018;fill-opacity:1;fill-rule:evenodd;stroke:none;stroke-width:0.354;stroke-linecap:square;stroke-linejoin:miter;stroke-miterlimit:4;stroke-dasharray:none;stroke-dashoffset:0;stroke-opacity:1;marker:none;color-rendering:auto;image-rendering:auto;shape-rendering:auto;text-rendering:auto;enable-background:accumulate" d="m -55.96088,717.47537 a 30,30 0 0 0 30,-30 30,30 0 0 0 -30,-30 h -30 v 30 a 30,30 0 0 0 30,30 z" id="rect4149-3-5-9-6-6-6"/>
          </g>
          <g id="g4204">
            <path d="m 1196.0555,-1313.9053 h 45.7813 q 13.5937,0 20.2344,1.1719 6.7187,1.0938 11.9531,4.6875 5.3125,3.5938 8.8281,9.6094 3.5156,5.9375 3.5156,13.3594 0,8.0468 -4.375,14.7656 -4.2968,6.7187 -11.7187,10.0781 10.4687,3.0469 16.0937,10.3906 5.625,7.3438 5.625,17.2657 0,7.8125 -3.6718,15.2343 -3.5938,7.3438 -9.9219,11.7969 -6.25,4.375 -15.4688,5.3906 -5.7812,0.625 -27.8906,0.7813 h -38.9844 z m 23.125,19.0625 v 26.4844 h 15.1563 q 13.5156,0 16.7969,-0.3906 5.9375,-0.7031 9.2968,-4.0625 3.4375,-3.4375 3.4375,-8.9844 0,-5.3125 -2.9687,-8.5937 -2.8906,-3.3594 -8.6719,-4.0625 -3.4375,-0.3907 -19.7656,-0.3907 z m 0,45.5469 v 30.625 h 21.4063 q 12.5,0 15.8594,-0.7031 5.1562,-0.9375 8.3593,-4.5313 3.2813,-3.6718 3.2813,-9.7656 0,-5.1562 -2.5,-8.75 -2.5,-3.5937 -7.2656,-5.2344 -4.6875,-1.6406 -20.4688,-1.6406 z" style="font-style:normal;font-variant:normal;font-weight:bold;font-stretch:normal;font-size:160px;line-height:125%;font-family:Arial;-inkscape-font-specification:'Arial Bold';letter-spacing:0px;word-spacing:0px;fill:#00a040;fill-opacity:1;stroke:none;stroke-width:1px;stroke-linecap:butt;stroke-linejoin:miter;stroke-opacity:1" id="path4188"/>
            <path d="m 1332.4618,-1199.374 h -21.9531 v -82.9688 h 20.3906 v 11.7969 q 5.2344,-8.3594 9.375,-11.0156 4.2187,-2.6563 9.5312,-2.6563 7.5,0 14.4532,4.1407 l -6.7969,19.1406 q -5.5469,-3.5938 -10.3125,-3.5938 -4.6094,0 -7.8125,2.5782 -3.2031,2.5 -5.0781,9.1406 -1.7969,6.6406 -1.7969,27.8125 z" style="font-style:normal;font-variant:normal;font-weight:bold;font-stretch:normal;font-size:160px;line-height:125%;font-family:Arial;-inkscape-font-specification:'Arial Bold';letter-spacing:0px;word-spacing:0px;fill:#00a040;fill-opacity:1;stroke:none;stroke-width:1px;stroke-linecap:butt;stroke-linejoin:miter;stroke-opacity:1" id="path4190"/>
            <path d="m 1477.0712,-1199.374 h -25.1563 l -10,-26.0156 h -45.7812 l -9.4532,26.0156 h -24.5312 l 44.6094,-114.5313 h 24.4531 z m -42.5782,-45.3125 -15.7812,-42.5 -15.4688,42.5 z" style="font-style:normal;font-variant:normal;font-weight:bold;font-stretch:normal;font-size:160px;line-height:125%;font-family:Arial;-inkscape-font-specification:'Arial Bold';letter-spacing:0px;word-spacing:0px;fill:#00a040;fill-opacity:1;stroke:none;stroke-width:1px;stroke-linecap:butt;stroke-linejoin:miter;stroke-opacity:1" id="path4192"/>
            <path id="path4194" transform="translate(1013.6423,-1345.2224)" d="M 476.08594,31.316406 V 145.84766 h 23.125 v -43.20313 h 15.07812 c 10.4688,0 18.46358,-0.54682 23.98438,-1.64062 4.0625,-0.8854 8.04692,-2.682329 11.95312,-5.390629 3.9583,-2.7604 7.21353,-6.536425 9.76563,-11.328125 2.5521,-4.7917 3.82812,-10.703075 3.82812,-17.734375 0,-9.1146 -2.21352,-16.536525 -6.64062,-22.265625 -4.4271,-5.7813 -9.92188,-9.5313 -16.48438,-11.25 -4.2709,-1.1459 -13.4375,-1.71875 -27.5,-1.71875 z m 43.125,15.664063 a 20.000003,20.000004 0 0 1 20,20 20.000003,20.000004 0 0 1 -20,20 h -20 v -20 a 20.000003,20.000004 0 0 1 20,-20 z" style="font-style:normal;font-variant:normal;font-weight:bold;font-stretch:normal;font-size:160px;line-height:125%;font-family:Arial;-inkscape-font-specification:'Arial Bold';letter-spacing:0px;word-spacing:0px;fill:#00a040;fill-opacity:1;stroke:none;stroke-width:1px;stroke-linecap:butt;stroke-linejoin:miter;stroke-opacity:1"/>
            <path d="m 1595.8993,-1199.374 v -114.5313 h 23.125 v 114.5313 z" style="font-style:normal;font-variant:normal;font-weight:bold;font-stretch:normal;font-size:160px;line-height:125%;font-family:Arial;-inkscape-font-specification:'Arial Bold';letter-spacing:0px;word-spacing:0px;fill:#00a040;fill-opacity:1;stroke:none;stroke-width:1px;stroke-linecap:butt;stroke-linejoin:miter;stroke-opacity:1" id="path4196"/>
          </g>
        </g>
      </g>
    </g>
  </g>
</svg>